# xmcd
#
# Track frame offsets:
#	150
#	12392
#	24948
#	36605
#	48024
#	60475
#	74947
#	84410
#	94681
#	106457
#	119508
#	133353
#	144265
#	157664
#	172985
#	184238
#	197420
#	207531
#	218150
#	233611
#	246153
#
# Disc length: 3447 seconds
#
# Revision: 0
# Processed by: cddbd v1.5.2PL0 Copyright (c) Steve Scherf et al.
# Submitted via: EZCDAudioConverter 7.0.8.1
#
DISCID=280d7515
DTITLE=Dave and Sugar - Greatest Hits - New York Wine and Tennessee Shine
DYEAR=1981
DGENRE=Country
TTITLE0=It's A Heartache
TTITLE1=Queen Of the Silver Dollar
TTITLE2=Tear Time
TTITLE3=Golden Tears
TTITLE4=The Door Is Always Open
TTITLE5=Don't Throw It All Away
TTITLE6=Gotta' Quit Lookin' At You Baby
TTITLE7=Baby Take Your Coat Off
TTITLE8=I'm Knee Deep In loving You
TTITLE9=My World Begins And Ends With You
TTITLE10=Can't Help But Wonder
TTITLE11=New York Wine and Teneessee Shine
TTITLE12=You Make me Wonder Why
TTITLE13=Make - Believe It's Your First Time
TTITLE14=Things To Do (Without You)
TTITLE15=Changin'
TTITLE16=Delta Queen
TTITLE17=It Ain't Easy Lovin' You
TTITLE18=Learnin' To Feel Love Again
TTITLE19=Just A Whole Lotta Love
TTITLE20=A Love Song
EXTD=
EXTT0=
EXTT1=
EXTT2=
EXTT3=
EXTT4=
EXTT5=
EXTT6=
EXTT7=
EXTT8=
EXTT9=
EXTT10=
EXTT11=
EXTT12=
EXTT13=
EXTT14=
EXTT15=
EXTT16=
EXTT17=
EXTT18=
EXTT19=
EXTT20=
PLAYORDER=
